<svg width="25" height="32" viewBox="0 0 25 32" fill="none" xmlns="http://www.w3.org/2000/svg">
<path d="M23.5043 6.94502C23.3538 6.62715 23.1916 6.31787 23.0178 6.01719C20.8545 2.28694 16.8824 0 12.6043 0H12.4371C11.6246 0 10.8255 0.0824814 10.0465 0.240554V0.242274C8.71073 0.513744 7.43684 1.01203 6.27663 1.70618C5.59621 2.1134 4.95592 2.58591 4.36411 3.122C3.2039 4.17355 2.23427 5.46221 1.53714 6.94502C0.119475 9.95877 -0.0393457 13.2973 0.97877 16.311C1.43516 17.6581 2.12728 18.9416 3.04843 20.0979L8.9431 27.5052L8.9732 27.4674C9.52321 26.7732 9.89936 25.9863 10.1033 25.1615C10.3725 24.0619 10.3357 22.8986 9.98462 21.8162C9.76729 21.1443 9.43126 20.5034 8.9732 19.9296L6.67785 17.0464C4.8506 14.7491 4.49785 11.7749 5.73497 9.09279C6.95202 6.46392 9.57001 4.82131 12.4053 4.82131H12.6377C15.4714 4.82131 18.0894 6.46392 19.3048 9.0945C19.3081 9.1031 19.3114 9.10997 19.3148 9.11856C19.3599 9.21478 19.4034 9.31444 19.4435 9.41238C19.8397 10.3729 20.0353 11.3677 20.0353 12.3488C20.0353 14.0189 19.4686 15.6564 18.3619 17.0464L11.0629 26.2113C10.1384 27.3694 10.1418 29.0361 11.0696 30.1924L12.5207 32L21.993 20.0979C24.9738 16.3557 25.5555 11.3058 23.5043 6.94502Z" fill="url(#paint0_linear_421_4179)" style=""/>
<defs>
<linearGradient id="paint0_linear_421_4179" x1="3.44885" y1="22.6762" x2="22.0898" y2="4.53906" gradientUnits="userSpaceOnUse">
<stop stop-color="#D19D00" style="stop-color:#D19D00;stop-color:color(display-p3 0.8196 0.6157 0.0000);stop-opacity:1;"/>
<stop offset="1" stop-color="#FFCF40" style="stop-color:#FFCF40;stop-color:color(display-p3 1.0000 0.8118 0.2510);stop-opacity:1;"/>
</linearGradient>
</defs>
</svg>
